<svg width="61" height="61" viewBox="0 0 61 61" fill="none" xmlns="http://www.w3.org/2000/svg">
<circle cx="30.5" cy="30.5" r="30.5" fill="#FF553C" fill-opacity="0.1"/>
<path d="M31.0012 30C29.751 30 28.5422 29.4263 27.596 28.385C26.676 27.3694 26.1141 26.015 26.015 24.5725C25.9092 23.0338 26.3659 21.6188 27.3005 20.5875C28.2351 19.5563 29.5418 19 31.0012 19C32.4503 19 33.7607 19.5662 34.6923 20.595C35.633 21.6337 36.0908 23.0462 35.985 24.5719C35.8835 26.0162 35.3222 27.37 34.404 28.3844C33.4603 29.4262 32.252 30 31.0012 30Z" fill="#FF553C"/>
<path d="M38.3273 40H22.674C22.4223 40.0014 22.1737 39.942 21.9472 39.8264C21.7208 39.7108 21.5226 39.542 21.3678 39.3331C21.2036 39.1066 21.0903 38.844 21.0362 38.5648C20.9821 38.2857 20.9887 37.9973 21.0555 37.7212C21.5554 35.6081 22.7939 33.8556 24.6368 32.6537C26.2725 31.5875 28.3546 31 30.5003 31C32.6882 31 34.7157 31.5625 36.3609 32.6281C38.208 33.8237 39.4482 35.5862 39.9458 37.725C40.0117 38.0013 40.0176 38.2896 39.9629 38.5686C39.9082 38.8476 39.7944 39.11 39.6299 39.3362C39.4753 39.5442 39.2775 39.7121 39.0517 39.8272C38.8259 39.9422 38.5781 40.0013 38.3273 40Z" fill="#FF553C"/>
</svg>
