<svg width="24" height="24" viewBox="0 0 24 24" fill="none" xmlns="http://www.w3.org/2000/svg">
<g clip-path="url(#clip0_296_375)">
<path d="M11.9997 0C5.37253 0 0 5.37269 0 11.9999C0 18.6269 5.37253 24 11.9997 24C18.6269 24 23.9998 18.6269 23.9998 11.9999C23.9998 5.37269 18.6269 0 11.9997 0ZM12 4.21492L19.1011 8.64297H4.89885L12 4.21492ZM19.1896 15.714H19.1888C19.1888 16.4242 18.6132 16.9998 17.9031 16.9998H6.09686C5.38661 16.9998 4.81109 16.4242 4.81109 15.714V8.92473C4.81109 8.84961 4.81877 8.77657 4.83125 8.70481L11.616 12.9355C11.6243 12.9407 11.6332 12.9442 11.6417 12.949C11.6507 12.954 11.6598 12.9588 11.6689 12.9633C11.7168 12.988 11.7662 13.008 11.8167 13.021C11.8219 13.0225 11.8271 13.0231 11.8323 13.0243C11.8876 13.0373 11.9437 13.0455 11.9997 13.0455H12.0001C12.0005 13.0455 12.0009 13.0455 12.0009 13.0455C12.0569 13.0455 12.113 13.0376 12.1684 13.0243C12.1736 13.023 12.1788 13.0225 12.184 13.021C12.2344 13.008 12.2836 12.988 12.3317 12.9633C12.3408 12.9588 12.35 12.954 12.3589 12.949C12.3674 12.9442 12.3764 12.9407 12.3847 12.9355L19.1694 8.70481C19.1819 8.77657 19.1896 8.84945 19.1896 8.92473V15.714Z" fill="#FF553C"/>
</g>
<defs>
<clipPath id="clip0_296_375">
<rect width="24" height="24" fill="white"/>
</clipPath>
</defs>
</svg>
