<svg width="32" height="32" viewBox="0 0 32 32" fill="none" xmlns="http://www.w3.org/2000/svg">
<path d="M24.9043 0H7.09565C5.21422 0.0014739 3.41027 0.749523 2.0799 2.0799C0.749523 3.41027 0.0014739 5.21422 0 7.09565V24.9043C0.0014739 26.7858 0.749523 28.5897 2.0799 29.9201C3.41027 31.2505 5.21422 31.9985 7.09565 32H24.9043C26.7858 31.9985 28.5897 31.2505 29.9201 29.9201C31.2505 28.5897 31.9985 26.7858 32 24.9043V7.09565C31.9985 5.21422 31.2505 3.41027 29.9201 2.0799C28.5897 0.749523 26.7858 0.0014739 24.9043 0ZM27.4643 16.2504C27.2529 16.5287 22.2831 22.9621 16 22.9621C9.71687 22.9621 4.74713 16.5565 4.53565 16.2504C4.48147 16.1782 4.45217 16.0903 4.45217 16C4.45217 15.9097 4.48147 15.8218 4.53565 15.7496C4.74713 15.4713 9.71687 9.03791 16 9.03791C22.2831 9.03791 27.2529 15.4713 27.4643 15.7496C27.5185 15.8218 27.5478 15.9097 27.5478 16C27.5478 16.0903 27.5185 16.1782 27.4643 16.2504Z" fill="#C7C7C7" fill-opacity="0.47"/>
</svg>
