<svg width="32" height="32" viewBox="0 0 32 32" fill="none" xmlns="http://www.w3.org/2000/svg">
<path d="M16 12C15.2089 12 14.4355 12.2346 13.7777 12.6741C13.1199 13.1136 12.6072 13.7384 12.3045 14.4693C12.0017 15.2002 11.9225 16.0044 12.0769 16.7804C12.2312 17.5563 12.6122 18.269 13.1716 18.8284C13.731 19.3878 14.4437 19.7688 15.2196 19.9231C15.9956 20.0775 16.7998 19.9983 17.5307 19.6955C18.2616 19.3928 18.8864 18.8801 19.3259 18.2223C19.7654 17.5645 20 16.7911 20 16C20 14.9391 19.5786 13.9217 18.8284 13.1716C18.0783 12.4214 17.0609 12 16 12ZM18.1726 16.4464C18.0547 16.4449 17.942 16.3974 17.8587 16.314C17.7753 16.2306 17.7277 16.1179 17.7262 16C17.7262 15.5422 17.5443 15.1031 17.2206 14.7794C16.8969 14.4557 16.4578 14.2738 16 14.2738C15.8816 14.2738 15.768 14.2268 15.6843 14.1431C15.6006 14.0593 15.5536 13.9458 15.5536 13.8274C15.5536 13.709 15.6006 13.5954 15.6843 13.5117C15.768 13.428 15.8816 13.381 16 13.381C16.6946 13.381 17.3608 13.6569 17.8519 14.1481C18.3431 14.6392 18.619 15.3054 18.619 16C18.6175 16.1179 18.57 16.2306 18.4866 16.314C18.4032 16.3974 18.2905 16.4449 18.1726 16.4464Z" fill="#C7C7C7"/>
<path d="M24.9043 0H7.09565C5.21422 0.0014739 3.41027 0.749523 2.0799 2.0799C0.749523 3.41027 0.0014739 5.21422 0 7.09565V24.9043C0.0014739 26.7858 0.749523 28.5897 2.0799 29.9201C3.41027 31.2505 5.21422 31.9985 7.09565 32H24.9043C26.7858 31.9985 28.5897 31.2505 29.9201 29.9201C31.2505 28.5897 31.9985 26.7858 32 24.9043V7.09565C31.9985 5.21422 31.2505 3.41027 29.9201 2.0799C28.5897 0.749523 26.7858 0.0014739 24.9043 0ZM27.4643 16.2504C27.2529 16.5287 22.2831 22.9621 16 22.9621C9.71687 22.9621 4.74713 16.5565 4.53565 16.2504C4.48147 16.1782 4.45217 16.0903 4.45217 16C4.45217 15.9097 4.48147 15.8218 4.53565 15.7496C4.74713 15.4713 9.71687 9.03791 16 9.03791C22.2831 9.03791 27.2529 15.4713 27.4643 15.7496C27.5185 15.8218 27.5478 15.9097 27.5478 16C27.5478 16.0903 27.5185 16.1782 27.4643 16.2504Z" fill="#C7C7C7" fill-opacity="0.47"/>
</svg>
