<svg width="23" height="23" viewBox="0 0 23 23" fill="none" xmlns="http://www.w3.org/2000/svg">
<g clip-path="url(#clip0_296_355)">
<path d="M12.4644 4.48787C12.4644 2.06158 10.4905 0.0876465 8.06421 0.0876465C5.63785 0.0876465 3.66406 2.06158 3.66406 4.48787C3.66406 6.91416 5.63785 8.88795 8.06421 8.88795C10.4905 8.88795 12.4644 6.91416 12.4644 4.48787Z" fill="#FF553C"/>
<path d="M16.03 12.7021C15.6192 12.2914 14.9532 12.2913 14.5424 12.702C14.1317 13.1127 14.1317 13.7788 14.5424 14.1896L15.9023 15.5497L14.5424 16.9094C14.1317 17.3201 14.1317 17.9861 14.5424 18.397C14.7479 18.6024 15.017 18.7051 15.2862 18.7051C15.5553 18.7051 15.8246 18.6024 16.0298 18.3971L18.1335 16.2935C18.3307 16.0962 18.4417 15.8287 18.4417 15.5498C18.4417 15.2708 18.3309 15.0033 18.1336 14.806L16.03 12.7021Z" fill="#FF553C"/>
<path d="M15.6372 8.18677C13.2188 8.18677 11.0691 9.35893 9.72605 11.1648C9.1817 11.0507 8.62556 10.9916 8.06402 10.9916C3.61745 10.9916 0 14.6092 0 19.0557C0 19.6366 0.470869 20.1075 1.05183 20.1075H9.85887C11.2084 21.8148 13.2969 22.9124 15.6372 22.9124C19.697 22.9124 23 19.6094 23 15.5496C23 11.4898 19.697 8.18677 15.6372 8.18677ZM15.6372 20.8087C12.7372 20.8087 10.378 18.4495 10.378 15.5496C10.378 12.6497 12.7372 10.2904 15.6372 10.2904C18.537 10.2904 20.8963 12.6497 20.8963 15.5496C20.8963 18.4495 18.537 20.8087 15.6372 20.8087Z" fill="#FF553C"/>
</g>
<defs>
<clipPath id="clip0_296_355">
<rect width="23" height="23" fill="white"/>
</clipPath>
</defs>
</svg>
