<svg width="20" height="20" viewBox="0 0 20 20" fill="none" xmlns="http://www.w3.org/2000/svg">
<g clip-path="url(#clip0_24_13)">
<path d="M10 0C4.48047 0 0 4.48047 0 10C0 15.5195 4.48047 20 10 20C15.5195 20 20 15.5195 20 10C20 4.48047 15.5195 0 10 0ZM16.9258 6H13.9609C13.6289 4.74219 13.1836 3.55469 12.5898 2.44531C14.4453 3.07422 15.9648 4.33203 16.9258 6ZM10 2.03516C10.8164 3.21875 11.4805 4.55469 11.9258 6H8.07422C8.51953 4.55469 9.18359 3.22266 10 2.03516ZM2.25781 12C2.10938 11.3711 2 10.7031 2 10C2 9.29688 2.10938 8.62891 2.25781 8H5.62891C5.55469 8.66797 5.48047 9.33203 5.48047 10C5.48047 10.668 5.55469 11.332 5.62891 12H2.25781ZM3.07422 14H6.03906C6.37109 15.2578 6.81641 16.4453 7.41016 17.5547C5.55469 16.9258 4.03516 15.668 3.07422 14ZM6.03516 6H3.07422C4.03906 4.33203 5.55469 3.07422 7.40625 2.44531C6.81641 3.55469 6.33203 4.74219 6.03516 6ZM10 17.9648C9.18359 16.7812 8.51953 15.4453 8.07422 14H11.8906C11.4805 15.4453 10.8164 16.7773 10 17.9648ZM12.332 12H7.66797C7.59375 11.332 7.51953 10.668 7.51953 10C7.51953 9.33203 7.59375 8.66797 7.66797 8H12.3359C12.4102 8.66797 12.4844 9.33203 12.4844 10C12.4805 10.668 12.4453 11.332 12.332 12ZM12.5938 17.5547C13.1875 16.4453 13.668 15.2578 13.9648 14H16.9297C15.9648 15.668 14.4453 16.9258 12.5938 17.5547ZM14.3711 12C14.4453 11.332 14.5195 10.668 14.5195 10C14.5195 9.33203 14.4453 8.66797 14.3711 8H17.7422C17.8906 8.62891 18 9.29688 18 10C18 10.7031 17.8906 11.3711 17.7422 12H14.3711Z" fill="#333333"/>
</g>
<defs>
<clipPath id="clip0_24_13">
<rect width="20" height="20" fill="white"/>
</clipPath>
</defs>
</svg>
