<svg width="9" height="6" viewBox="0 0 9 6" fill="none" xmlns="http://www.w3.org/2000/svg">
<path d="M7.57165 0.107607C7.36718 0.122784 7.17703 0.218276 7.04276 0.373217L4.14434 3.73528C4.10579 3.78009 4.05824 3.81629 4.00479 3.84154C3.95134 3.86679 3.89318 3.88052 3.83408 3.88183C3.77499 3.88315 3.71627 3.87203 3.66175 3.84919C3.60722 3.82635 3.55811 3.79231 3.5176 3.74926L2.18955 2.35131C2.04804 2.2027 1.85329 2.11639 1.64815 2.11137C1.443 2.10634 1.24426 2.18301 1.09565 2.32452C0.947038 2.46603 0.860726 2.66077 0.855701 2.86592C0.850676 3.07106 0.92735 3.2698 1.06886 3.41842L3.3079 5.76697C3.38099 5.84161 3.4684 5.90071 3.56489 5.94075C3.66138 5.98079 3.76495 6.00093 3.86941 5.99996H3.88805C3.99586 5.9971 4.1019 5.9718 4.19938 5.92566C4.29686 5.87953 4.38366 5.81358 4.45422 5.73202L8.2147 1.3844C8.31243 1.26786 8.37386 1.12524 8.3914 0.974162C8.40894 0.823087 8.38183 0.670182 8.31342 0.534347C8.24501 0.398513 8.13829 0.285702 8.00646 0.20986C7.87463 0.134018 7.72346 0.0984694 7.57165 0.107607Z" fill="#2F9B6B"/>
</svg>
