<svg width="36" height="32" viewBox="0 0 36 32" fill="none" xmlns="http://www.w3.org/2000/svg">
<path d="M35.6079 14.5659C35.6079 12.5178 33.9471 10.857 31.899 10.857H22.5352C22.33 10.857 22.1652 10.6901 22.1652 10.4856L22.184 10.3709C23.0025 8.29489 23.2682 6.04157 22.9552 3.83206C22.0824 0.724013 20.2339 -0.173142 18.7873 0.0264579C17.3171 0.276131 16.2613 1.57805 16.3198 3.06774C16.3198 7.1418 13.1609 11.5928 10.3346 13.5443C10.1336 13.6834 10.0146 13.9115 10.0146 14.1556V29.1645C10.0146 29.5192 10.2671 29.8252 10.6155 29.8934C11.1462 29.9949 11.626 30.0937 12.0802 30.1889C14.0769 30.6653 16.123 30.9004 18.1753 30.8886H27.8186C30.7222 30.8886 31.1569 29.2563 31.1569 28.2917C31.1569 27.7805 31.0394 27.2763 30.8126 26.8173C32.4435 25.9904 33.1056 24.0055 32.2961 22.3663C33.4165 21.7967 34.1231 20.6457 34.1238 19.3883C34.1245 18.8326 33.9854 18.286 33.719 17.7985C34.8853 17.1406 35.6079 15.9054 35.6079 14.5659Z" fill="#C7C7C7"/>
<path d="M7.78925 14.1953C7.78925 13.3761 7.12508 12.7119 6.30582 12.7119H1.48344C0.664173 12.7119 0 13.3761 0 14.1953V30.5166C0 31.3352 0.664173 32 1.48344 32H6.30512C7.12438 32 7.78856 31.3352 7.78856 30.5166V14.1953H7.78925ZM5.56375 27.919C5.56375 28.5338 5.0651 29.0318 4.451 29.0318C3.8369 29.0318 3.33825 28.5338 3.33825 27.919C3.33825 27.3049 3.8369 26.8063 4.451 26.8063C5.0651 26.8063 5.56375 27.3049 5.56375 27.919Z" fill="#C7C7C7"/>
</svg>
