<svg width="32" height="33" viewBox="0 0 32 33" fill="none" xmlns="http://www.w3.org/2000/svg">
<path fill-rule="evenodd" clip-rule="evenodd" d="M14.4595 26.2324L7.91923 32.6455C7.77927 32.805 7.59534 32.9174 7.39167 32.968C7.188 33.0185 6.97413 33.0048 6.77823 32.9286C6.58234 32.8524 6.41359 32.7174 6.29422 32.5413C6.17485 32.3651 6.11045 32.1562 6.1095 31.9419V26.2324H2.65288C1.95057 26.2282 1.2782 25.9411 0.781579 25.4333C0.284962 24.9255 0.0041354 24.2381 0 23.52L0 2.7124C0.00549448 1.99477 0.286757 1.30811 0.783082 0.800653C1.27941 0.293192 1.95099 0.00561777 2.65288 0L29.3471 0C30.0494 0.00422819 30.7218 0.291356 31.2184 0.799117C31.715 1.30688 31.9959 1.99433 32 2.7124V23.52C31.9959 24.2381 31.715 24.9255 31.2184 25.4333C30.7218 25.9411 30.0494 26.2282 29.3471 26.2324H14.4595ZM7.23106 9.83179C6.96595 9.81812 6.71612 9.70082 6.5332 9.50414C6.35029 9.30745 6.24829 9.04643 6.24829 8.77503C6.24829 8.50362 6.35029 8.2426 6.5332 8.04592C6.71612 7.84923 6.96595 7.73193 7.23106 7.71826H24.7689C24.9091 7.71104 25.0491 7.73302 25.1807 7.78286C25.3122 7.83271 25.4325 7.90938 25.5342 8.00822C25.6358 8.10706 25.7168 8.22601 25.7721 8.35782C25.8274 8.48964 25.8559 8.63159 25.8559 8.77503C25.8559 8.91846 25.8274 9.06041 25.7721 9.19223C25.7168 9.32405 25.6358 9.44299 25.5342 9.54183C25.4325 9.64067 25.3122 9.71734 25.1807 9.76719C25.0491 9.81703 24.9091 9.83901 24.7689 9.83179H7.23106ZM7.23106 16.6934C6.96595 16.6797 6.71612 16.5624 6.5332 16.3657C6.35029 16.169 6.24829 15.908 6.24829 15.6366C6.24829 15.3652 6.35029 15.1042 6.5332 14.9075C6.71612 14.7108 6.96595 14.5935 7.23106 14.5798H21.5382C21.8033 14.5935 22.0532 14.7108 22.2361 14.9075C22.419 15.1042 22.521 15.3652 22.521 15.6366C22.521 15.908 22.419 16.169 22.2361 16.3657C22.0532 16.5624 21.8033 16.6797 21.5382 16.6934H7.23106Z" fill="black" fill-opacity="0.2"/>
</svg>
