<svg width="25" height="25" viewBox="0 0 25 25" fill="none" xmlns="http://www.w3.org/2000/svg">
<path d="M16.4066 12.5C15.4027 12.5 14.432 12.0518 13.6722 11.2383C12.9334 10.4448 12.4823 9.38672 12.4027 8.25977C12.3177 7.05762 12.6844 5.95215 13.4349 5.14648C14.1854 4.34082 15.2347 3.90625 16.4066 3.90625C17.5701 3.90625 18.6224 4.34863 19.3704 5.15234C20.1258 5.96387 20.4935 7.06738 20.4085 8.25928C20.327 9.38769 19.8763 10.4453 19.139 11.2378C18.3812 12.0518 17.411 12.5 16.4066 12.5Z" fill="#979B9E"/>
<path d="M22.844 21.0938H9.97045C9.76348 21.0949 9.559 21.0485 9.37277 20.9581C9.18654 20.8678 9.02351 20.736 8.89623 20.5728C8.76123 20.3958 8.66799 20.1906 8.62352 19.9725C8.57904 19.7545 8.58447 19.5292 8.6394 19.3135C9.05053 17.6626 10.0691 16.2935 11.5847 15.3545C12.9299 14.5215 14.6423 14.0625 16.407 14.0625C18.2063 14.0625 19.8738 14.502 21.2268 15.3345C22.7458 16.2686 23.7659 17.6455 24.175 19.3164C24.2293 19.5322 24.2341 19.7576 24.1892 19.9755C24.1442 20.1935 24.0506 20.3985 23.9153 20.5752C23.7881 20.7377 23.6255 20.8689 23.4398 20.9587C23.2541 21.0486 23.0503 21.0948 22.844 21.0938Z" fill="#979B9E"/>
<path d="M7.17743 12.6953C5.45917 12.6953 3.94843 11.0977 3.80829 9.13428C3.73896 8.12842 4.05243 7.19824 4.6872 6.51611C5.31513 5.84082 6.20087 5.46875 7.17743 5.46875C8.154 5.46875 9.0329 5.84277 9.66425 6.52197C10.3039 7.20947 10.6164 8.1377 10.5432 9.13525C10.403 11.0981 8.89277 12.6953 7.17743 12.6953Z" fill="#979B9E"/>
<path d="M10.3837 14.231C9.52485 13.811 8.4101 13.6011 7.17817 13.6011C5.73969 13.6011 4.34272 13.9761 3.24409 14.6567C1.99848 15.4297 1.16059 16.5552 0.82221 17.9141C0.772691 18.1095 0.768007 18.3136 0.80851 18.5112C0.849012 18.7087 0.933651 18.8945 1.0561 19.0547C1.17228 19.2038 1.32113 19.3244 1.49119 19.407C1.66125 19.4896 1.84799 19.5321 2.03705 19.5313H7.45698C7.54845 19.5312 7.63703 19.4991 7.70725 19.4405C7.77748 19.3819 7.8249 19.3005 7.84125 19.2104C7.84662 19.1797 7.85346 19.1489 7.86127 19.1187C8.27533 17.4556 9.24555 16.0503 10.6791 15.0259C10.7319 14.9879 10.7743 14.9373 10.8025 14.8788C10.8308 14.8202 10.844 14.7556 10.8409 14.6906C10.8379 14.6257 10.8187 14.5626 10.785 14.5069C10.7514 14.4513 10.7044 14.405 10.6484 14.3721C10.5717 14.3271 10.4838 14.2798 10.3837 14.231Z" fill="#979B9E"/>
</svg>
