<svg xmlns:xlink="http://www.w3.org/1999/xlink" class="svg-icon svg-icon--navReposts" width="18" height="11" viewBox="0 0 18 11" fill="none" xmlns="http://www.w3.org/2000/svg"><path d="M9.5625 8.8H5.0625V5.5H6.75C7.35244 5.5 7.875 5.03415 7.875 4.4C7.875 3.9875 7.65506 3.7213 7.3125 3.3L5.0625 0.6534C4.71994 0.25795 4.39481 0 3.9375 0C3.48019 0 3.15506 0.25795 2.8125 0.6534L0.5625 3.3C0.219937 3.7213 0 3.9875 0 4.4C0 5.03415 0.522563 5.5 1.125 5.5H2.8125V9.9C2.8125 10.5072 3.3165 11 3.9375 11H9.5625C10.1835 11 10.6875 10.5072 10.6875 9.9C10.6875 9.2928 10.1835 8.8 9.5625 8.8ZM16.875 5.5H15.1875V1.1C15.1875 0.4928 14.6835 0 14.0625 0H8.4375C7.8165 0 7.3125 0.4928 7.3125 1.1C7.3125 1.7072 7.8165 2.2 8.4375 2.2H12.9375V5.5H11.25C10.6476 5.5 10.125 5.96585 10.125 6.6C10.125 7.0125 10.3449 7.2787 10.6875 7.7L12.9375 10.3471C13.2801 10.7421 13.6058 11 14.0625 11C14.5192 11 14.8449 10.7421 15.1875 10.3466L17.4375 7.7C17.7801 7.2787 18 7.0125 18 6.6C18 5.96585 17.4774 5.5 16.875 5.5Z" fill="#B5B5B5"></path></svg>