<svg xmlns:xlink="http://www.w3.org/1999/xlink" class="svg-icon svg-icon--navLikes" width="17" height="15" viewBox="0 0 17 15" fill="none" xmlns="http://www.w3.org/2000/svg"><path d="M14.0603 0H2.93972C2.16006 0 1.41233 0.299313 0.861025 0.832092C0.30972 1.36487 0 2.08748 0 2.84094V8.97737C0 9.73084 0.30972 10.4534 0.861025 10.9862C1.41233 11.519 2.16006 11.8183 2.93972 11.8183H6.3414L8.13883 14.7972C8.17517 14.8588 8.22773 14.91 8.29116 14.9456C8.35459 14.9812 8.42664 15 8.5 15C8.57336 15 8.64541 14.9812 8.70884 14.9456C8.77227 14.91 8.82483 14.8588 8.86117 14.7972L10.6586 11.8183H14.0603C14.8399 11.8183 15.5877 11.519 16.139 10.9862C16.6903 10.4534 17 9.73084 17 8.97737V2.84094C17 2.08748 16.6903 1.36487 16.139 0.832092C15.5877 0.299313 14.8399 0 14.0603 0ZM10.7006 8.01145C10.0341 8.58116 9.40571 9.19115 8.81917 9.83777C8.78049 9.88345 8.73179 9.92026 8.67659 9.94554C8.6214 9.97082 8.56108 9.98393 8.5 9.98393C8.43892 9.98393 8.3786 9.97082 8.3234 9.94554C8.26821 9.92026 8.21951 9.88345 8.18083 9.83777C7.59429 9.19115 6.96589 8.58116 6.29941 8.01145C5.21591 7.06988 4.36759 6.32312 4.36759 5.12181C4.35184 4.82239 4.39887 4.52298 4.50587 4.24157C4.61286 3.96016 4.7776 3.70255 4.99019 3.48421C5.20279 3.26586 5.45886 3.0913 5.74301 2.97099C6.02717 2.85069 6.33356 2.78713 6.64377 2.78412C7.3402 2.78676 8.00736 3.05516 8.5 3.53088C8.99264 3.05516 9.65979 2.78676 10.3562 2.78412C10.6664 2.78713 10.9728 2.85069 11.257 2.97099C11.5411 3.0913 11.7972 3.26586 12.0098 3.48421C12.2224 3.70255 12.3871 3.96016 12.4941 4.24157C12.6011 4.52298 12.6482 4.82239 12.6324 5.12181C12.6324 6.32312 11.7841 7.06988 10.7006 8.01145Z" fill="#B5B5B5"></path></svg>