<svg xmlns:xlink="http://www.w3.org/1999/xlink" class="svg-icon svg-icon--navViews" width="16" height="11" viewBox="0 0 16 11" fill="none" xmlns="http://www.w3.org/2000/svg"><path fill-rule="evenodd" clip-rule="evenodd" d="M15.2926 3.48632C13.9453 2.18947 11.1832 0 8 0C4.81684 0 2.05474 2.18947 0.707368 3.48632C0.252632 3.92421 0 4.51368 0 5.13684C0 5.76 0.252632 6.34947 0.707368 6.78737C2.07158 8.08421 4.81684 10.2737 8 10.2737C11.1832 10.2737 13.9453 8.08421 15.2926 6.78737C15.7474 6.34947 16 5.76 16 5.13684C16 4.51368 15.7474 3.92421 15.2926 3.48632ZM8 8.72421C6.01263 8.72421 4.41263 7.12421 4.41263 5.13684C4.41263 3.14947 6.01263 1.54947 8 1.54947C9.98737 1.54947 11.5874 3.14947 11.5874 5.13684C11.5874 7.12421 9.98737 8.72421 8 8.72421Z" fill="#B5B5B5"></path><path d="M8.00002 7.30947C9.19994 7.30947 10.1727 6.33675 10.1727 5.13683C10.1727 3.93692 9.19994 2.9642 8.00002 2.9642C6.80011 2.9642 5.82739 3.93692 5.82739 5.13683C5.82739 6.33675 6.80011 7.30947 8.00002 7.30947Z" fill="#B5B5B5"></path></svg>