<svg xmlns:xlink="http://www.w3.org/1999/xlink" class="svg-icon svg-icon--navComments" width="15" height="14" viewBox="0 0 15 14" fill="none" xmlns="http://www.w3.org/2000/svg"><path d="M13.4353 3.52094C11.8223 0.33391 7.55919 -0.965678 4.44747 0.780871C1.15356 2.45212 -0.0853013 6.88286 1.84829 10.0116L0.0410137 13.3711C0.00624595 13.4383 -0.00688644 13.5146 0.00341649 13.5896C0.0137194 13.6645 0.0469535 13.7345 0.0985634 13.7898C0.150173 13.8451 0.217633 13.8832 0.291697 13.8987C0.365761 13.9141 0.442804 13.9064 0.512266 13.8763L4.03694 12.2828C9.79157 15.8318 16.5931 9.58406 13.4353 3.52094ZM3.87176 7.7865C2.45072 7.74035 2.45072 5.67801 3.87176 5.63428C4.15716 5.63428 4.43088 5.74766 4.63268 5.94947C4.83449 6.15128 4.94787 6.42499 4.94787 6.71039C4.94787 6.99579 4.83449 7.26951 4.63268 7.47132C4.43088 7.67312 4.15716 7.7865 3.87176 7.7865ZM7.45231 7.7865C7.16691 7.7865 6.89319 7.67312 6.69139 7.47132C6.48958 7.26951 6.3762 6.99579 6.3762 6.71039C6.3762 6.42499 6.48958 6.15128 6.69139 5.94947C6.89319 5.74766 7.16691 5.63428 7.45231 5.63428C8.87335 5.67801 8.87335 7.74035 7.45231 7.7865ZM11.0304 7.7865C10.745 7.7865 10.4713 7.67312 10.2695 7.47132C10.0677 7.26951 9.95432 6.99579 9.95432 6.71039C9.95432 6.42499 10.0677 6.15128 10.2695 5.94947C10.4713 5.74766 10.745 5.63428 11.0304 5.63428C12.4636 5.67801 12.4636 7.74035 11.0304 7.7865Z" fill="#B5B5B5"></path></svg>