<svg xmlns:xlink="http://www.w3.org/1999/xlink" class="svg-icon svg-icon--navFollowers" width="10" height="13" viewBox="0 0 10 13" fill="none" xmlns="http://www.w3.org/2000/svg"><path d="M10 10.4829V11.5534C10.0003 11.7435 9.96157 11.9317 9.88613 12.1073C9.81069 12.2829 9.69999 12.4425 9.56037 12.5769C9.42075 12.7112 9.25495 12.8178 9.07248 12.8904C8.89001 12.963 8.69444 13.0003 8.49699 13H1.50301C1.30556 13.0003 1.10999 12.963 0.92752 12.8904C0.745047 12.8178 0.579253 12.7112 0.439633 12.5769C0.300014 12.4425 0.189313 12.2829 0.113874 12.1073C0.038434 11.9317 -0.000262457 11.7435 1.3397e-06 11.5534V10.4829C0.00100921 9.58803 0.370821 8.73006 1.0283 8.09726C1.68577 7.46447 2.57721 7.10854 3.50701 7.10757H6.49299C7.42279 7.10854 8.31423 7.46447 8.9717 8.09726C9.62918 8.73006 9.99899 9.58803 10 10.4829ZM5 6.14317C5.63077 6.14222 6.2471 5.96139 6.77115 5.62351C7.2952 5.28563 7.70347 4.80587 7.9444 4.24481C8.18532 3.68374 8.2481 3.06655 8.1248 2.47117C8.0015 1.87579 7.69766 1.32893 7.25163 0.899649C6.80561 0.47037 6.23742 0.177928 5.61882 0.0592567C5.00022 -0.0594149 4.35896 0.00100629 3.77601 0.23289C3.19307 0.464773 2.69459 0.857718 2.34354 1.3621C1.99249 1.86648 1.8046 2.45967 1.80361 3.06676C1.80361 3.88268 2.14037 4.66518 2.73981 5.24211C3.33925 5.81905 4.15226 6.14317 5 6.14317Z" fill="#B5B5B5"></path></svg>